Coordinates
version=1
nRows=17
nColumns=38
inDegrees=no

Units are S.I. units (second, meters, Newtons, ...)
If the header above contains a line with 'inDegrees', this indicates whether rotational values are in degrees (yes) or radians (no).

endheader
time	pelvis_tilt	pelvis_list	pelvis_rotation	pelvis_tx	pelvis_ty	pelvis_tz	hip_flexion_r	hip_adduction_r	hip_rotation_r	knee_angle_r	ankle_angle_r	subtalar_angle_r	mtp_angle_r	hip_flexion_l	hip_adduction_l	hip_rotation_l	knee_angle_l	ankle_angle_l	subtalar_angle_l	mtp_angle_l	lumbar_extension	lumbar_bending	lumbar_rotation	arm_flex_r	arm_add_r	arm_rot_r	elbow_flex_r	pro_sup_r	wrist_flex_r	wrist_dev_r	arm_flex_l	arm_add_l	arm_rot_l	elbow_flex_l	pro_sup_l	wrist_flex_l	wrist_dev_l
1	2.12129	1.43236	-0.573159	0.900908	0.531194	1.00858	0.0727043	0.103692	-0.37826	0.412658	0.148051	0	0	0.474907	-0.158892	0.0443994	1.32304	-0.0730853	0	0	-0.33879	0.0968159	0.0845041	0.00580374	-0.23701	0.14418	0.452937	1.32396	0	0	0.0556023	-0.277732	0.413295	0.423926	1.15332	0	0
1.01	2.16835	1.44025	-0.615794	0.901831	0.538262	1.01003	0.0610102	0.0951086	-0.379396	0.40659	0.149951	0	0	0.501842	-0.162229	0.0212156	1.31168	-0.0858094	0	0	-0.345681	0.0859986	0.0788411	0.0163813	-0.233463	0.1461	0.449592	1.32229	0	0	0.0632209	-0.28092	0.409798	0.427543	1.15483	0	0
1.02	2.18076	1.43635	-0.635816	0.902883	0.547923	1.01018	0.0420127	0.0991675	-0.374177	0.399689	0.156298	0	0	0.494615	-0.152016	0.0306081	1.27379	-0.0569397	0	0	-0.347455	0.0878789	0.0871188	0.0158199	-0.237291	0.149283	0.451561	1.32107	0	0	0.0615125	-0.278213	0.406148	0.42902	1.15772	0	0
1.03	2.21346	1.4365	-0.669699	0.903994	0.556367	1.01093	0.0253063	0.0984928	-0.369758	0.392578	0.158969	0	0	0.499898	-0.151286	0.020683	1.24224	-0.0488632	0	0	-0.353259	0.0845662	0.0884744	0.0204435	-0.237223	0.153435	0.451547	1.31845	0	0	0.0660553	-0.278246	0.404017	0.429015	1.16071	0	0
1.04	2.24917	1.43651	-0.707003	0.904886	0.564987	1.01157	0.0083927	0.0966366	-0.369378	0.386093	0.166117	0	0	0.50216	-0.151928	0.00653427	1.20578	-0.0414419	0	0	-0.358791	0.0810825	0.0901931	0.025186	-0.23695	0.157102	0.449935	1.31548	0	0	0.0705496	-0.277309	0.401285	0.427574	1.16351	0	0
1.05	2.28391	1.43626	-0.742243	0.905693	0.573759	1.01201	-0.00837692	0.0949478	-0.370013	0.380268	0.173319	0	0	0.502943	-0.153467	-0.00962223	1.1668	-0.0339639	0	0	-0.363661	0.0779572	0.0909902	0.0296943	-0.235998	0.16016	0.447404	1.31272	0	0	0.0749889	-0.276649	0.399103	0.425938	1.16603	0	0
1.06	2.31476	1.43571	-0.773788	0.90646	0.582653	1.01225	-0.0248015	0.093772	-0.369538	0.374932	0.18012	0	0	0.502424	-0.157557	-0.0301408	1.1263	-0.026557	0	0	-0.367877	0.0752869	0.0920172	0.0336572	-0.234934	0.162598	0.444916	1.31003	0	0	0.0793543	-0.276533	0.398655	0.423746	1.16889	0	0
1.07	2.34357	1.43577	-0.802826	0.907155	0.591489	1.01238	-0.0401767	0.0923055	-0.367473	0.369928	0.183933	0	0	0.500361	-0.15976	-0.050384	1.08169	-0.0198386	0	0	-0.371662	0.0722747	0.0925112	0.0376528	-0.233812	0.164712	0.442448	1.30742	0	0	0.0842082	-0.276853	0.399786	0.421388	1.17151	0	0
1.08	2.37278	1.43545	-0.831714	0.907712	0.600376	1.01246	-0.0556614	0.0906847	-0.366643	0.365238	0.188103	0	0	0.495536	-0.161104	-0.07123	1.03326	-0.0128101	0	0	-0.375657	0.0695609	0.0923658	0.0411855	-0.232618	0.16567	0.440513	1.30517	0	0	0.0887248	-0.277326	0.401059	0.419433	1.17361	0	0
1.09	2.40436	1.43513	-0.86269	0.908192	0.60948	1.01241	-0.0705901	0.0883444	-0.366268	0.362237	0.192567	0	0	0.488311	-0.161699	-0.094528	0.981619	-0.00682694	0	0	-0.379467	0.0666579	0.0915468	0.0439649	-0.231372	0.165769	0.439202	1.30344	0	0	0.0921499	-0.278616	0.40243	0.419114	1.17533	0	0
1.1	2.43814	1.43509	-0.896167	0.908491	0.618585	1.01225	-0.0850189	0.0848294	-0.367662	0.360644	0.198198	0	0	0.479068	-0.161125	-0.120808	0.92732	-0.00110015	0	0	-0.38277	0.0633102	0.090564	0.0460301	-0.230247	0.165206	0.438344	1.30212	0	0	0.0940911	-0.28008	0.403238	0.419958	1.17659	0	0
1.11	2.47177	1.43498	-0.929079	0.90878	0.627939	1.01197	-0.0989704	0.0810924	-0.368296	0.360208	0.204404	0	0	0.4677	-0.159226	-0.149019	0.869347	0.00600743	0	0	-0.386069	0.0599048	0.0888593	0.0473808	-0.228762	0.163594	0.438435	1.30123	0	0	0.096189	-0.281707	0.404521	0.419703	1.17725	0	0
1.12	2.50354	1.43429	-0.960056	0.908906	0.63746	1.01167	-0.113947	0.0779325	-0.368603	0.358403	0.211294	0	0	0.453907	-0.156331	-0.178606	0.80831	0.0130009	0	0	-0.389523	0.0571145	0.0868418	0.0482486	-0.227549	0.161621	0.439306	1.3009	0	0	0.0974338	-0.283345	0.405721	0.420022	1.1779	0	0
1.13	2.52991	1.43367	-0.985722	0.908927	0.647179	1.01117	-0.128873	0.075407	-0.367757	0.355935	0.215325	0	0	0.438542	-0.152061	-0.207205	0.744538	0.0201421	0	0	-0.391994	0.0549339	0.0847906	0.0483913	-0.226251	0.158909	0.440433	1.30133	0	0	0.0977712	-0.285075	0.407001	0.420891	1.17857	0	0
1.14	2.55598	1.43262	-1.01135	0.908855	0.657083	1.01058	-0.144358	0.072868	-0.367416	0.353357	0.21921	0	0	0.422483	-0.1473	-0.240072	0.681268	0.0255293	0	0	-0.3945	0.0530282	0.0829485	0.0479682	-0.225005	0.155707	0.44166	1.30241	0	0	0.0976494	-0.286432	0.408135	0.421519	1.17874	0	0
1.15	2.57885	1.43174	-1.03383	0.908581	0.667122	1.00983	-0.159141	0.070182	-0.367258	0.351948	0.221995	0	0	0.406372	-0.140945	-0.272348	0.618093	0.0304466	0	0	-0.396324	0.0516592	0.0812778	0.0468899	-0.22409	0.153417	0.442598	1.3043	0	0	0.0974888	-0.28703	0.409754	0.420788	1.17859	0	0
1.16	2.65818	1.43447	-1.10737	0.907879	0.67585	1.00982	-0.171724	0.0602907	-0.354444	0.352785	0.211329	0	0	0.394756	-0.133456	-0.337387	0.56658	0.0269757	0	0	-0.403986	0.042045	0.0710005	0.0517518	-0.219195	0.150254	0.440287	1.30637	0	0	0.103713	-0.290233	0.411586	0.419182	1.17815	0	0
